<svg xmlns="http://www.w3.org/2000/svg" viewBox="0 0 100 100" width="200" height="200">
    <rect width="100%" height="100%" fill="none"/>
    <text x="50%" y="30%" text-anchor="middle" dominant-baseline="middle" font-size="60" font-family="Jetbrains Mono"
          fill="#64b5f6">AU
    </text>
    <path fill="#64b5f6" d="M-20 100 q 15 -100 40 0 q 15 -100 40 0 q 15 -100 40 0"/>
    <path fill="#d4f0fd" d="M0 100 q 15 -100 40 0"/>
    <path fill="#b3e5fc" d="M20 100 q 15 -100 40 0 q 15 -100 40 0 q 15 -100 40 0 q 15 -100 40 0 q 15 -100 40 0"/>
    <path fill="#64b5f6" d="M40 100 q 15 -100 40 0 q 15 -100 40 0 q 15 -100 40 0"/>
    <path fill="#d4f0fd" d="M60 100 q 15 -100 40 0"/>
</svg>
